<?xml version="1.0" encoding="utf-8"?>
<!-- Generator: Adobe Illustrator 23.0.6, SVG Export Plug-In . SVG Version: 6.00 Build 0)  -->
<svg version="1.1" id="Capa_1" xmlns="http://www.w3.org/2000/svg" xmlns:xlink="http://www.w3.org/1999/xlink" x="0px" y="0px"
	 viewBox="0 0 283.5 85" style="enable-background:new 0 0 283.5 85;" xml:space="preserve">
<style type="text/css">
	.st0{clip-path:url(#SVGID_2_);fill:#004680;}
	.st1{clip-path:url(#SVGID_2_);fill:#2B4782;}
	.st2{clip-path:url(#SVGID_2_);fill:#922E1C;}
	.st3{clip-path:url(#SVGID_2_);fill:#6BA539;}
</style>
<g>
	<defs>
		<rect id="SVGID_1_" y="0" width="283.5" height="85"/>
	</defs>
	<clipPath id="SVGID_2_">
		<use xlink:href="#SVGID_1_"  style="overflow:visible;"/>
	</clipPath>
	<path class="st0" d="M42.6,10.1c-17.9,0-32.4,14.5-32.4,32.4c0,6.2,1.8,12,4.9,17l5.9-7.8c-1.2-2.8-1.9-5.9-1.9-9.1
		c0-13,10.5-23.5,23.5-23.5s23.5,10.5,23.5,23.5c0,3.2-0.7,6.3-1.8,9.1l6,7.7c3-4.9,4.7-10.7,4.7-16.9C75,24.6,60.5,10.1,42.6,10.1"
		/>
	<path class="st1" d="M55.3,62.3L45.4,49L55.3,62.3z"/>
	<path class="st2" d="M17.6,63.1c2,2.4,4.3,4.6,6.9,6.3l5.4-7.1l0.8-1l17.5-23.2L42.6,31l-9.8,12.6v0L17.6,63.1z"/>
	<path class="st2" d="M67.6,63.1L50.9,41.7L45.4,49l10,13.2l5.4,7.1C63.3,67.6,65.6,65.5,67.6,63.1"/>
	<path class="st0" d="M42.6,66c-3.1,0-6.1-0.6-8.8-1.7l-5.5,7.3c4.3,2.1,9.2,3.3,14.3,3.3c5,0,9.8-1.2,14.1-3.2l-5.5-7.3
		C48.5,65.5,45.6,66,42.6,66"/>
	<path class="st0" d="M111.1,27.3c0-7.2,6.7-12.6,16.9-12.6c10.1,0,16.8,5.4,16.8,12.6c0,7.2-6.7,12.6-16.8,12.6
		C117.8,39.9,111.1,34.5,111.1,27.3 M136.9,27.3c0-3.8-4.1-6.1-9-6.1c-4.9,0-9,2.3-9,6.1c0,3.8,4.1,6.1,9,6.1
		C132.8,33.5,136.9,31.1,136.9,27.3"/>
	<polygon class="st0" points="173.3,32.8 173.3,39.1 148.1,39.1 148.1,15.6 155.7,15.6 155.7,32.8 	"/>
	<path class="st0" d="M204.5,37.1c-3,1.8-6.9,2.8-11.4,2.8c-10.4,0-17.4-5.4-17.4-12.6c0-7.2,7.1-12.6,17.4-12.6
		c4.5,0,8.4,1,11.4,2.8l-3.2,5.5c-2.2-1.1-5.2-1.9-8.3-1.9c-5.2,0-9.6,2.3-9.6,6.1c0,3.8,4.4,6.1,9.6,6.1c3,0,6.1-0.8,8.3-1.9
		L204.5,37.1z"/>
	<polygon class="st0" points="273.3,40.5 252.1,27.4 252.1,39.1 244.5,39.1 244.5,14.2 265.7,27.3 265.7,15.6 273.3,15.6 	"/>
	<polygon class="st0" points="80.2,14.1 74.4,18.2 85.9,33 90.2,27.4 	"/>
	<polygon class="st0" points="103.6,14.1 97.5,22.3 91.9,29.7 91.9,29.6 87.7,35.2 91.9,40.6 109.3,18.2 	"/>
	<polygon class="st0" points="223.6,13.9 206.2,36.3 211.8,40.4 221.9,27 221.9,27 223.6,24.7 227.6,29.8 223.2,29.8 218.7,35.8 
		232,35.8 235.5,40.4 241.1,36.3 	"/>
	<polygon class="st3" points="82.2,70.4 82.2,47.2 107.6,47.2 107.6,53.4 89.6,53.4 89.6,57.6 103.9,57.6 103.9,63.5 89.6,63.5 
		89.6,70.4 	"/>
	<path class="st3" d="M109.3,58.8c0-7,6.6-12.4,16.6-12.4c9.9,0,16.6,5.3,16.6,12.4c0,7-6.6,12.4-16.6,12.4
		C115.9,71.2,109.3,65.9,109.3,58.8 M134.7,58.8c0-3.8-4-6-8.8-6c-4.9,0-8.9,2.3-8.9,6c0,3.7,4,6,8.9,6
		C130.7,64.8,134.7,62.6,134.7,58.8"/>
	<path class="st3" d="M145,58.8c0-7,6.6-12.4,16.6-12.4c9.9,0,16.6,5.3,16.6,12.4c0,7-6.6,12.4-16.6,12.4
		C151.7,71.2,145,65.9,145,58.8 M170.5,58.8c0-3.8-4-6-8.8-6c-4.9,0-8.9,2.3-8.9,6c0,3.7,4,6,8.9,6
		C166.5,64.8,170.5,62.6,170.5,58.8"/>
	<path class="st3" d="M182.1,46.9c3.5-0.3,6.7-0.5,9.5-0.5c14.8,0,20.9,5.3,20.9,12.4c0,7-6,12.4-20.9,12.4c-2.8,0-6-0.2-9.5-0.5
		V46.9z M204.7,58.8c0-4.2-4.9-6-12.2-6c-1,0-2,0-3,0.1v11.9c1,0.1,2,0.1,3,0.1C199.8,64.8,204.7,63,204.7,58.8"/>
	<path class="st3" d="M217.4,62.4c3,1.4,7.2,2.6,12.5,2.6c2.9,0,6.2-0.4,6.2-1.6c0-1-2.1-1.1-4.9-1.3c-10.6-0.7-15.5-2.5-15.5-7.5
		c0-5.9,6.4-8.1,13.8-8.1c4.9,0,9.2,1,12.4,2.4l-2.4,5.7c-2.6-1.1-6.4-1.9-10.4-1.9c-3.1,0-5.9,0.4-5.9,1.6c0,0.9,1.5,1.1,4,1.2
		c9.3,0.5,16.4,1.8,16.4,7.6c0,5.4-5.8,8.1-13.9,8.1c-7.1,0-11.7-1.7-14.8-3.2L217.4,62.4z"/>
</g>
</svg>
